<svg width="70" height="71" viewBox="0 0 70 71" fill="none" xmlns="http://www.w3.org/2000/svg">
<path d="M47.81 35.64C47.4367 34.94 46.9117 34.3917 46.235 33.995C45.5584 33.5983 44.8234 33.4 44.03 33.4H42.63V32.21C42.63 31.3233 42.315 30.565 41.685 29.935C41.055 29.305 40.2967 28.99 39.41 28.99H30.66C29.7734 28.99 29.015 29.305 28.385 29.935C27.755 30.565 27.44 31.3233 27.44 32.21V33.4H26.04C25.2467 33.4 24.5117 33.5983 23.835 33.995C23.1584 34.3917 22.6334 34.94 22.26 35.64L11.76 54.61C11.2467 55.5433 10.99 56.5933 10.99 57.76V60.7C10.99 61.5867 11.305 62.345 11.935 62.975C12.565 63.605 13.3234 63.92 14.21 63.92H18.62V68.4C18.62 69.0067 18.83 69.5083 19.25 69.905C19.67 70.3017 20.1834 70.5 20.79 70.5H49.28C49.84 70.5 50.33 70.29 50.75 69.87C51.17 69.45 51.38 68.96 51.38 68.4V63.92H55.86C56.7467 63.92 57.4934 63.605 58.1 62.975C58.7067 62.345 59.01 61.5867 59.01 60.7V57.76C59.01 56.5 58.7534 55.45 58.24 54.61L47.81 35.64ZM29.47 32.21C29.47 31.8833 29.575 31.6033 29.785 31.37C29.995 31.1367 30.2634 31.02 30.59 31.02H39.41C39.7367 31.02 40.005 31.1367 40.215 31.37C40.425 31.6033 40.53 31.8833 40.53 32.21V33.4H29.47V32.21ZM49.35 68.4C49.35 68.4 49.3267 68.4233 49.28 68.47H20.79C20.7434 68.47 20.72 68.4467 20.72 68.4V63.92H49.35V68.4ZM56.98 60.7C56.98 61.0267 56.875 61.3067 56.665 61.54C56.455 61.7733 56.1867 61.89 55.86 61.89H50.33H19.67H14.21C13.8834 61.89 13.6034 61.7733 13.37 61.54C13.1367 61.3067 13.02 61.0267 13.02 60.7V57.34H17.43C17.71 57.34 17.955 57.235 18.165 57.025C18.375 56.815 18.48 56.57 18.48 56.29C18.48 56.01 18.375 55.7767 18.165 55.59C17.955 55.4033 17.71 55.31 17.43 55.31H13.72L24.01 36.62C24.1967 36.2467 24.465 35.955 24.815 35.745C25.165 35.535 25.55 35.43 25.97 35.43H44.03C44.4034 35.43 44.7767 35.535 45.15 35.745C45.5234 35.955 45.8034 36.2467 45.99 36.62L56.28 55.31H21.84C21.56 55.31 21.3267 55.4033 21.14 55.59C20.9534 55.7767 20.86 56.01 20.86 56.29C20.86 56.57 20.9534 56.815 21.14 57.025C21.3267 57.235 21.56 57.34 21.84 57.34H56.98V60.7ZM14.28 32.21C14.28 34.6367 14.7 37.0167 15.54 39.35C15.6334 39.63 15.8084 39.8283 16.065 39.945C16.3217 40.0617 16.5784 40.0733 16.835 39.98C17.0917 39.8867 17.2784 39.7117 17.395 39.455C17.5117 39.1983 17.5234 38.93 17.43 38.65C16.6834 36.5967 16.31 34.45 16.31 32.21C16.31 28.85 17.15 25.735 18.83 22.865C20.51 19.995 22.785 17.72 25.655 16.04C28.525 14.36 31.64 13.52 35 13.52C38.36 13.52 41.475 14.36 44.345 16.04C47.215 17.72 49.49 19.995 51.17 22.865C52.85 25.735 53.69 28.85 53.69 32.21C53.69 34.45 53.3167 36.5967 52.57 38.65C52.4767 38.93 52.4884 39.1983 52.605 39.455C52.7217 39.7117 52.8967 39.8867 53.13 39.98L53.48 40.05C53.7134 40.05 53.9234 39.98 54.11 39.84C54.2967 39.7 54.4134 39.5367 54.46 39.35C55.3467 36.9233 55.79 34.5433 55.79 32.21C55.79 29.13 55.1484 26.225 53.865 23.495C52.5817 20.765 50.7967 18.42 48.51 16.46C46.2234 14.5 43.6567 13.1233 40.81 12.33C41.2767 11.7233 41.51 11.0467 41.51 10.3C41.51 9.41333 41.195 8.655 40.565 8.025C39.935 7.395 39.1767 7.08 38.29 7.08H31.71C30.8234 7.08 30.065 7.395 29.435 8.025C28.805 8.655 28.49 9.41333 28.49 10.3C28.49 11.0467 28.7234 11.7233 29.19 12.33C26.3434 13.1233 23.7884 14.5 21.525 16.46C19.2617 18.42 17.4884 20.765 16.205 23.495C14.9217 26.225 14.28 29.13 14.28 32.21ZM31.71 11.49C31.3834 11.49 31.115 11.3733 30.905 11.14C30.695 10.9067 30.59 10.6267 30.59 10.3C30.59 9.97333 30.695 9.69333 30.905 9.46C31.115 9.22667 31.3834 9.11 31.71 9.11H38.29C38.6167 9.11 38.8967 9.22667 39.13 9.46C39.3634 9.69333 39.48 9.97333 39.48 10.3C39.48 10.6267 39.3634 10.9067 39.13 11.14C38.8967 11.3733 38.6167 11.49 38.29 11.49H31.71ZM57.4 9.81C54.4134 6.82333 50.995 4.525 47.145 2.915C43.295 1.305 39.2467 0.5 35 0.5C30.7534 0.5 26.705 1.305 22.855 2.915C19.005 4.525 15.5867 6.82333 12.6 9.81C9.61337 12.7967 7.31504 16.215 5.70504 20.065C4.09504 23.915 3.29004 27.9633 3.29004 32.21C3.29004 35.6167 3.81504 38.9183 4.86504 42.115C5.91504 45.3117 7.44337 48.2633 9.45004 50.97C9.68337 51.25 9.96337 51.39 10.29 51.39C10.5234 51.39 10.71 51.32 10.85 51.18C11.0834 50.9933 11.2234 50.7717 11.27 50.515C11.3167 50.2583 11.2467 50.0133 11.06 49.78C9.19337 47.1667 7.77004 44.3783 6.79004 41.415C5.81004 38.4517 5.32004 35.3833 5.32004 32.21C5.32004 26.8433 6.67337 21.85 9.38004 17.23C11.9934 12.75 15.54 9.20333 20.02 6.59C24.64 3.88333 29.6334 2.53 35 2.53C38.9667 2.53 42.7584 3.27666 46.375 4.77C49.9917 6.26334 53.2 8.41 56 11.21C58.8 14.01 60.9467 17.2183 62.44 20.835C63.9334 24.4517 64.68 28.2433 64.68 32.21C64.68 35.3833 64.19 38.4517 63.21 41.415C62.23 44.3783 60.8067 47.1433 58.94 49.71C58.7534 49.9433 58.6834 50.2 58.73 50.48C58.7767 50.76 58.905 50.9933 59.115 51.18C59.325 51.3667 59.57 51.4367 59.85 51.39C60.13 51.3433 60.3634 51.2033 60.55 50.97C62.5567 48.2633 64.085 45.3117 65.135 42.115C66.185 38.9183 66.71 35.6167 66.71 32.21C66.71 27.9633 65.905 23.915 64.295 20.065C62.685 16.215 60.3867 12.7967 57.4 9.81ZM59.15 33.26H61.32C61.6 33.26 61.8334 33.155 62.02 32.945C62.2067 32.735 62.3 32.49 62.3 32.21C62.3 31.93 62.2067 31.685 62.02 31.475C61.8334 31.265 61.6 31.16 61.32 31.16H59.15C58.87 31.16 58.625 31.265 58.415 31.475C58.205 31.685 58.1 31.93 58.1 32.21C58.1 32.49 58.1934 32.735 58.38 32.945C58.5667 33.155 58.8234 33.26 59.15 33.26ZM10.92 31.16H8.68004C8.40004 31.16 8.16671 31.265 7.98004 31.475C7.79337 31.685 7.70004 31.93 7.70004 32.21C7.70004 32.49 7.79337 32.735 7.98004 32.945C8.16671 33.155 8.40004 33.26 8.68004 33.26H10.92C11.2 33.26 11.4334 33.155 11.62 32.945C11.8067 32.735 11.9 32.49 11.9 32.21C11.9 31.93 11.8067 31.685 11.62 31.475C11.4334 31.265 11.2 31.16 10.92 31.16Z" fill="black"/>
</svg>
