<svg width="70" height="71" viewBox="0 0 70 71" fill="none" xmlns="http://www.w3.org/2000/svg">
<path d="M27.51 58.81C27.51 58.81 27.4983 58.7867 27.475 58.74C27.4517 58.6933 27.4167 58.67 27.37 58.67L27.3 58.46L27.09 58.39C27.09 58.3433 27.0667 58.32 27.02 58.32L26.95 58.25H26.74C26.6 58.1567 26.46 58.1567 26.32 58.25H26.18L25.83 58.46L25.55 59.02V59.44C25.55 59.5333 25.5733 59.58 25.62 59.58L25.76 59.86C25.76 59.9067 25.7833 59.93 25.83 59.93L25.9 60C25.9 60.0467 25.9233 60.0817 25.97 60.105C26.0167 60.1283 26.075 60.1517 26.145 60.175C26.215 60.1983 26.2733 60.21 26.32 60.21L26.53 60.28C26.6233 60.28 26.705 60.2683 26.775 60.245C26.845 60.2217 26.915 60.1983 26.985 60.175C27.055 60.1517 27.1017 60.1167 27.125 60.07C27.1483 60.0233 27.1833 60 27.23 60L27.3 59.93L27.58 59.44V59.02C27.5333 58.9733 27.51 58.9033 27.51 58.81ZM27.51 64.97C27.51 64.97 27.4983 64.9467 27.475 64.9C27.4517 64.8533 27.4167 64.83 27.37 64.83L27.3 64.62L27.09 64.55C27.09 64.5033 27.0667 64.48 27.02 64.48L26.95 64.41H26.74C26.32 64.3167 26.0167 64.41 25.83 64.69C25.7367 64.69 25.6783 64.725 25.655 64.795C25.6317 64.865 25.62 64.9233 25.62 64.97L25.55 65.18V65.6C25.55 65.6933 25.5733 65.7633 25.62 65.81L25.76 66.02C25.76 66.0667 25.7833 66.09 25.83 66.09C26.0633 66.3233 26.2967 66.44 26.53 66.44C26.6233 66.44 26.705 66.4283 26.775 66.405C26.845 66.3817 26.915 66.3583 26.985 66.335C27.055 66.3117 27.1017 66.2883 27.125 66.265C27.1483 66.2417 27.2067 66.1833 27.3 66.09L27.37 65.95L27.51 65.81V65.6C27.5567 65.5533 27.58 65.4833 27.58 65.39C27.58 65.2967 27.5567 65.2267 27.51 65.18V64.97ZM29.61 37.74C29.8433 37.5533 29.995 37.32 30.065 37.04C30.135 36.76 30.1 36.5033 29.96 36.27C29.82 36.0367 29.61 35.885 29.33 35.815C29.05 35.745 28.7933 35.8033 28.56 35.99C27.9533 36.3633 27.2067 36.55 26.32 36.55C25.8067 36.55 25.1767 36.3867 24.43 36.06L24.29 35.99C24.0567 35.8033 23.8 35.745 23.52 35.815C23.24 35.885 23.03 36.0367 22.89 36.27C22.75 36.5033 22.715 36.76 22.785 37.04C22.855 37.32 23.0067 37.5533 23.24 37.74C24.2667 38.3 25.2933 38.58 26.32 38.58H26.46C27.5333 38.58 28.5833 38.3 29.61 37.74ZM31.43 24.09C31.57 24.09 31.7333 24.0433 31.92 23.95C32.48 23.67 33.0867 23.53 33.74 23.53C34.1133 23.53 34.5567 23.6467 35.07 23.88L35.28 23.95C35.5133 24.09 35.77 24.1133 36.05 24.02C36.33 23.9267 36.54 23.7633 36.68 23.53C36.82 23.2967 36.8433 23.04 36.75 22.76C36.6567 22.48 36.4933 22.27 36.26 22.13C35.56 21.71 34.7433 21.4883 33.81 21.465C32.8767 21.4417 31.9433 21.6633 31.01 22.13C30.7767 22.27 30.6133 22.48 30.52 22.76C30.4267 23.04 30.45 23.2967 30.59 23.53C30.73 23.9033 31.01 24.09 31.43 24.09ZM21.91 22.13C21.1633 21.71 20.3583 21.4883 19.495 21.465C18.6317 21.4417 17.6633 21.6633 16.59 22.13C16.3567 22.27 16.1933 22.48 16.1 22.76C16.0067 23.04 16.03 23.2967 16.17 23.53C16.4033 23.9033 16.7067 24.09 17.08 24.09C17.22 24.09 17.3833 24.0433 17.57 23.95C18.13 23.67 18.7367 23.53 19.39 23.53C19.7633 23.53 20.2067 23.6467 20.72 23.88L20.93 23.95C21.1633 24.09 21.42 24.1133 21.7 24.02C21.98 23.9267 22.19 23.7633 22.33 23.53C22.47 23.2967 22.4933 23.04 22.4 22.76C22.3067 22.48 22.1433 22.27 21.91 22.13ZM33.6 24.44C33.32 24.44 33.075 24.545 32.865 24.755C32.655 24.965 32.55 25.21 32.55 25.49V27.45C32.55 27.73 32.655 27.975 32.865 28.185C33.075 28.395 33.32 28.5 33.6 28.5C33.88 28.5 34.125 28.395 34.335 28.185C34.545 27.975 34.65 27.73 34.65 27.45V25.49C34.65 25.21 34.545 24.965 34.335 24.755C34.125 24.545 33.88 24.44 33.6 24.44ZM19.25 24.44C18.97 24.44 18.725 24.545 18.515 24.755C18.305 24.965 18.2 25.21 18.2 25.49V27.45C18.2 27.73 18.305 27.975 18.515 28.185C18.725 28.395 18.97 28.5 19.25 28.5C19.53 28.5 19.775 28.395 19.985 28.185C20.195 27.975 20.3 27.73 20.3 27.45V25.49C20.3 25.21 20.195 24.965 19.985 24.755C19.775 24.545 19.53 24.44 19.25 24.44ZM67.76 46.77C67.5733 46.5367 67.3517 46.385 67.095 46.315C66.8383 46.245 66.5933 46.28 66.36 46.42C66.1267 46.56 65.9633 46.77 65.87 47.05C65.7767 47.33 65.8233 47.5867 66.01 47.82C67.3167 50.06 67.97 52.4167 67.97 54.89C67.97 57.3633 67.3633 59.6383 66.15 61.715C64.9367 63.7917 63.2917 65.4367 61.215 66.65C59.1383 67.8633 56.875 68.47 54.425 68.47C51.975 68.47 49.7117 67.8633 47.635 66.65C45.5583 65.4367 43.9133 63.7917 42.7 61.715C41.4867 59.6383 40.88 57.3633 40.88 54.89C40.88 52.4167 41.4867 50.1417 42.7 48.065C43.9133 45.9883 45.5583 44.3433 47.635 43.13C49.7117 41.9167 51.9633 41.31 54.39 41.31C57.6567 41.31 60.55 42.36 63.07 44.46C63.2567 44.6467 63.49 44.7283 63.77 44.705C64.05 44.6817 64.295 44.565 64.505 44.355C64.715 44.145 64.8083 43.9 64.785 43.62C64.7617 43.34 64.6333 43.0833 64.4 42.85C63 41.6833 61.4367 40.7967 59.71 40.19C57.9833 39.5833 56.21 39.28 54.39 39.28C51.87 39.28 49.5833 39.8167 47.53 40.89V21.57C47.53 18.77 46.9933 16.0867 45.92 13.52C44.8467 10.9533 43.3183 8.66667 41.335 6.66C39.3517 4.65334 37.0767 3.125 34.51 2.075C31.9433 1.025 29.26 0.5 26.46 0.5C22.6333 0.5 19.0867 1.45667 15.82 3.37C12.6467 5.23666 10.1033 7.75667 8.19 10.93C6.27667 14.1967 5.32 17.7433 5.32 21.57V30.53C5.32 30.81 5.425 31.0433 5.635 31.23C5.845 31.4167 6.09 31.51 6.37 31.51C6.65 31.51 6.895 31.4167 7.105 31.23C7.315 31.0433 7.42 30.81 7.42 30.53V27.59C8.21333 28.1967 9.1 28.5233 10.08 28.57C10.2667 31.5567 11.2 34.2983 12.88 36.795C14.56 39.2917 16.7067 41.17 19.32 42.43V43.83C19.32 44.2033 19.215 44.5417 19.005 44.845C18.795 45.1483 18.5033 45.3467 18.13 45.44L7.42 49.08V35.29C7.42 35.01 7.315 34.765 7.105 34.555C6.895 34.345 6.65 34.24 6.37 34.24C6.09 34.24 5.845 34.345 5.635 34.555C5.425 34.765 5.32 35.01 5.32 35.29V49.85C3.73333 50.5967 2.45 51.7283 1.47 53.245C0.49 54.7617 0 56.4067 0 58.18V69.45C0 69.73 0.105 69.975 0.315 70.185C0.525 70.395 0.77 70.5 1.05 70.5C1.33 70.5 1.56333 70.395 1.75 70.185C1.93667 69.975 2.03 69.73 2.03 69.45V58.18C2.03 56.64 2.485 55.24 3.395 53.98C4.305 52.72 5.48333 51.8567 6.93 51.39L8.75 50.76C8.51667 52.02 8.4 53.1167 8.4 54.05C8.4 55.3567 8.56333 56.5233 8.89 57.55C8.19 57.9233 7.58333 58.4833 7.07 59.23C6.37 60.3033 6.16 61.5167 6.44 62.87L7.35 66.93C7.44333 67.4433 7.7 67.84 8.12 68.12C8.58667 68.3067 8.925 68.4 9.135 68.4C9.345 68.4 9.47333 68.3767 9.52 68.33L10.64 68.12C10.92 68.0733 11.1417 67.9217 11.305 67.665C11.4683 67.4083 11.515 67.1517 11.445 66.895C11.375 66.6383 11.2233 66.4283 10.99 66.265C10.7567 66.1017 10.5 66.0433 10.22 66.09L9.31 66.3L8.4 62.45C8.26 61.6567 8.4 60.945 8.82 60.315C9.24 59.685 9.82333 59.2883 10.57 59.125C11.3167 58.9617 12.0167 59.09 12.67 59.51C13.3233 59.93 13.72 60.5133 13.86 61.26L14.7 65.18L13.79 65.39C13.51 65.4367 13.2883 65.5767 13.125 65.81C12.9617 66.0433 12.915 66.3 12.985 66.58C13.055 66.86 13.2067 67.0817 13.44 67.245C13.6733 67.4083 13.93 67.4433 14.21 67.35L15.33 67.14C15.8433 67 16.24 66.7317 16.52 66.335C16.8 65.9383 16.8933 65.46 16.8 64.9L15.89 60.84C15.61 59.5333 14.91 58.5067 13.79 57.76C12.8567 57.1533 11.8767 56.8967 10.85 56.99C10.57 56.0567 10.43 55.0767 10.43 54.05C10.43 52.6033 10.6633 51.25 11.13 49.99L18.13 47.68L25.48 54.96C25.76 55.2867 26.1217 55.45 26.565 55.45C27.0083 55.45 27.37 55.2867 27.65 54.96L34.93 47.75L39.83 49.36C39.13 51.0867 38.78 52.93 38.78 54.89C38.78 57.69 39.48 60.2917 40.88 62.695C42.28 65.0983 44.1817 67 46.585 68.4C48.9883 69.8 51.59 70.5 54.39 70.5C57.19 70.5 59.7917 69.8 62.195 68.4C64.5983 67 66.5 65.0983 67.9 62.695C69.3 60.2917 70 57.655 70 54.785C70 51.915 69.2533 49.2433 67.76 46.77ZM42.84 20.59C43.5867 20.6833 44.205 21.01 44.695 21.57C45.185 22.13 45.43 22.8067 45.43 23.6C45.43 24.3933 45.15 25.07 44.59 25.63C44.1233 26.0967 43.54 26.3767 42.84 26.47V20.59ZM26.46 2.53C28.98 2.53 31.395 3.02 33.705 4C36.015 4.98 38.08 6.35667 39.9 8.13C41.44 9.67 42.6767 11.3967 43.61 13.31C44.5433 15.2233 45.1267 17.2533 45.36 19.4C44.52 18.84 43.5633 18.56 42.49 18.56H41.44L41.3 18.49C39.2 18.3967 37.3217 17.8833 35.665 16.95C34.0083 16.0167 32.69 14.8733 31.71 13.52C31.3833 13.1467 30.9867 12.925 30.52 12.855C30.0533 12.785 29.6333 12.8667 29.26 13.1C27.6267 14.22 25.69 15.2467 23.45 16.18C19.53 17.72 15.5867 18.5133 11.62 18.56H10.36C9.28667 18.56 8.35333 18.84 7.56 19.4C7.88667 16.2733 8.93667 13.4267 10.71 10.86C12.4833 8.29333 14.7233 6.26334 17.43 4.77C20.23 3.27666 23.24 2.53 26.46 2.53ZM7.42 23.53C7.42 22.7367 7.67667 22.06 8.19 21.5C8.70333 20.94 9.33333 20.6367 10.08 20.59V26.47C9.33333 26.3767 8.70333 26.0733 8.19 25.56C7.67667 25.0467 7.42 24.37 7.42 23.53ZM12.11 27.59V27.52V20.59C16.3567 20.45 20.3933 19.61 24.22 18.07C26.3667 17.1833 28.35 16.1333 30.17 14.92C31.43 16.5067 32.9233 17.7667 34.65 18.7C36.6567 19.82 38.6867 20.4267 40.74 20.52V27.73C40.74 29.6433 40.3783 31.475 39.655 33.225C38.9317 34.975 37.8933 36.5267 36.54 37.88C35.28 39.14 33.8333 40.1433 32.2 40.89H32.06C30.24 41.6833 28.3733 42.08 26.46 42.08H26.39C23.8233 42.08 21.4433 41.4267 19.25 40.12C17.0567 38.8133 15.3183 37.0517 14.035 34.835C12.7517 32.6183 12.11 30.2033 12.11 27.59ZM26.6 53.21L20.09 46.7C20.93 45.9533 21.35 44.9967 21.35 43.83V43.27C22.9833 43.83 24.6633 44.11 26.39 44.11H26.46C28.14 44.11 29.82 43.8533 31.5 43.34V43.83C31.5 44.4367 31.6283 44.9967 31.885 45.51C32.1417 46.0233 32.5033 46.4667 32.97 46.84L26.6 53.21ZM34.72 45.44C34.3467 45.3467 34.055 45.1483 33.845 44.845C33.635 44.5417 33.53 44.2033 33.53 43.83V42.5C35.21 41.7067 36.7033 40.6567 38.01 39.35C39.4567 37.8567 40.5883 36.1883 41.405 34.345C42.2217 32.5017 42.6767 30.5767 42.77 28.57C43.75 28.5233 44.6367 28.1967 45.43 27.59V42.15C43.47 43.55 41.8833 45.3233 40.67 47.47L34.72 45.44ZM45.36 50.13C44.6133 50.13 43.9833 50.445 43.47 51.075C42.9567 51.705 42.7 52.475 42.7 53.385C42.7 54.295 42.9567 55.065 43.47 55.695C43.9833 56.325 44.6133 56.64 45.36 56.64C46.1067 56.64 46.7483 56.325 47.285 55.695C47.8217 55.065 48.09 54.295 48.09 53.385C48.09 52.475 47.8333 51.705 47.32 51.075C46.8067 50.445 46.1533 50.13 45.36 50.13ZM45.36 54.61C45.22 54.61 45.08 54.4817 44.94 54.225C44.8 53.9683 44.73 53.6767 44.73 53.35C44.73 53.0233 44.8 52.7433 44.94 52.51C45.08 52.2767 45.22 52.16 45.36 52.16C45.5 52.16 45.6517 52.2767 45.815 52.51C45.9783 52.7433 46.06 53.035 46.06 53.385C46.06 53.735 45.9783 54.0267 45.815 54.26C45.6517 54.4933 45.5 54.61 45.36 54.61ZM66.15 53.35C66.15 52.4633 65.8933 51.705 65.38 51.075C64.8667 50.445 64.2133 50.13 63.42 50.13C62.6267 50.13 61.9733 50.445 61.46 51.075C60.9467 51.705 60.69 52.475 60.69 53.385C60.69 54.295 60.9467 55.065 61.46 55.695C61.9733 56.325 62.6267 56.64 63.42 56.64C64.2133 56.64 64.8667 56.325 65.38 55.695C65.8933 55.065 66.15 54.2833 66.15 53.35ZM62.72 53.35C62.72 53.0233 62.8017 52.7433 62.965 52.51C63.1283 52.2767 63.28 52.16 63.42 52.16C63.56 52.16 63.7 52.2767 63.84 52.51C63.98 52.7433 64.05 53.035 64.05 53.385C64.05 53.735 63.98 54.0267 63.84 54.26C63.7 54.4933 63.56 54.61 63.42 54.61C63.28 54.61 63.1283 54.4933 62.965 54.26C62.8017 54.0267 62.72 53.7233 62.72 53.35ZM50.75 51.88C51.6367 51.88 52.36 51.53 52.92 50.83C53.48 50.13 53.76 49.2667 53.76 48.24C53.76 47.2133 53.4683 46.3383 52.885 45.615C52.3017 44.8917 51.59 44.53 50.75 44.53C49.91 44.53 49.1983 44.8917 48.615 45.615C48.0317 46.3383 47.74 47.2133 47.74 48.24C47.74 49.2667 48.0317 50.13 48.615 50.83C49.1983 51.53 49.91 51.88 50.75 51.88ZM50.75 46.63C50.9833 46.63 51.205 46.7817 51.415 47.085C51.625 47.3883 51.73 47.7617 51.73 48.205C51.73 48.6483 51.625 49.0333 51.415 49.36C51.205 49.6867 50.9833 49.85 50.75 49.85C50.5167 49.85 50.3067 49.6983 50.12 49.395C49.9333 49.0917 49.84 48.7183 49.84 48.275C49.84 47.8317 49.9333 47.4467 50.12 47.12C50.3067 46.7933 50.5167 46.63 50.75 46.63ZM61.04 48.24C61.04 47.2133 60.7483 46.3383 60.165 45.615C59.5817 44.8917 58.87 44.53 58.03 44.53C57.19 44.53 56.4783 44.8917 55.895 45.615C55.3117 46.3383 55.02 47.2133 55.02 48.24C55.02 49.2667 55.3117 50.13 55.895 50.83C56.4783 51.53 57.19 51.88 58.03 51.88C58.87 51.88 59.5817 51.53 60.165 50.83C60.7483 50.13 61.04 49.2667 61.04 48.24ZM57.05 48.24C57.05 47.82 57.155 47.4467 57.365 47.12C57.575 46.7933 57.7967 46.63 58.03 46.63C58.2633 46.63 58.485 46.7933 58.695 47.12C58.905 47.4467 59.01 47.82 59.01 48.24C59.01 48.66 58.905 49.0333 58.695 49.36C58.485 49.6867 58.2633 49.85 58.03 49.85C57.7967 49.85 57.575 49.6867 57.365 49.36C57.155 49.0333 57.05 48.66 57.05 48.24ZM53.13 64.69C53.5033 64.4567 53.9233 64.34 54.39 64.34C54.8567 64.34 55.3 64.4567 55.72 64.69C56.4667 65.0633 57.19 65.25 57.89 65.25C59.15 65.25 60.1767 64.7367 60.97 63.71C61.5767 62.9167 61.8567 61.9367 61.81 60.77C61.7633 60.0233 61.53 59.0433 61.11 57.83V57.76C61.11 57.76 61.0867 57.76 61.04 57.76C60.5267 56.36 59.6633 55.2517 58.45 54.435C57.2367 53.6183 55.8833 53.21 54.39 53.21C52.8967 53.21 51.555 53.6183 50.365 54.435C49.175 55.2517 48.3 56.36 47.74 57.76C47.74 57.8067 47.7167 57.83 47.67 57.83C47.25 58.9967 47.04 59.9767 47.04 60.77C46.9467 61.9367 47.2033 62.9167 47.81 63.71C48.4167 64.5033 49.21 64.9933 50.19 65.18C51.17 65.3667 52.15 65.2033 53.13 64.69ZM49.63 58.6C49.63 58.5533 49.63 58.53 49.63 58.53C50.0967 57.41 50.7967 56.5467 51.73 55.94C52.5233 55.4733 53.41 55.24 54.39 55.24C55.37 55.24 56.2567 55.4733 57.05 55.94C57.9833 56.5467 58.6833 57.41 59.15 58.53V58.6C59.8967 60.4667 59.9667 61.75 59.36 62.45C58.9867 62.9633 58.4733 63.1967 57.82 63.15C57.4 63.15 57.0033 63.0567 56.63 62.87C55.8833 62.4967 55.1367 62.31 54.39 62.31C53.6433 62.31 52.8967 62.4967 52.15 62.87C51.7767 63.0567 51.38 63.15 50.96 63.15C50.3067 63.1967 49.7933 62.9633 49.42 62.45C48.86 61.6567 48.93 60.3733 49.63 58.6Z" fill="black"/>
</svg>
