<svg width="71" height="71" viewBox="0 0 71 71" fill="none" xmlns="http://www.w3.org/2000/svg">
<path d="M41.5437 50.83C40.7037 49.99 39.6887 49.57 38.4987 49.57C37.3087 49.57 36.2937 49.99 35.4537 50.83L31.5337 54.75C31.487 54.8433 31.3704 54.89 31.1837 54.89C28.897 54.47 26.7504 53.6767 24.7437 52.51C23.3437 51.67 22.0837 50.69 20.9637 49.57C19.3304 47.9367 18.0237 46.0467 17.0437 43.9C16.437 42.4533 15.9704 40.9367 15.6437 39.35C15.6437 39.1633 15.667 39.0467 15.7137 39L19.7037 35.08C20.5437 34.24 20.9637 33.225 20.9637 32.035C20.9637 30.845 20.5437 29.83 19.7037 28.99L14.0337 23.25C13.1937 22.41 12.1787 21.99 10.9887 21.99C9.7987 21.99 8.7837 22.41 7.9437 23.25L3.4637 27.73C1.87704 29.3167 0.827037 31.1833 0.313704 33.33C-0.19963 35.4767 -0.082963 37.6467 0.663704 39.84C3.23037 47.0267 7.1037 53.1633 12.2837 58.25C15.2704 61.2833 18.7004 63.92 22.5737 66.16C22.807 66.3 23.0637 66.3233 23.3437 66.23C23.6237 66.1367 23.8337 65.9733 23.9737 65.74C24.1137 65.5067 24.1487 65.25 24.0787 64.97C24.0087 64.69 23.857 64.48 23.6237 64.34C19.937 62.2867 16.6237 59.79 13.6837 56.85C8.69037 51.81 5.0037 45.9067 2.6237 39.14C2.01704 37.4133 1.9237 35.6517 2.3437 33.855C2.7637 32.0583 3.62704 30.5067 4.9337 29.2L9.3437 24.72C9.7637 24.3 10.3004 24.09 10.9537 24.09C11.607 24.09 12.1437 24.3 12.5637 24.72L18.2337 30.39C18.7004 30.8567 18.9337 31.3933 18.9337 32C18.9337 32.6067 18.7004 33.1433 18.2337 33.61L14.3137 37.53C14.0337 37.81 13.8354 38.1367 13.7187 38.51C13.602 38.8833 13.567 39.2567 13.6137 39.63C13.9404 41.4033 14.477 43.1067 15.2237 44.74C16.297 47.12 17.7204 49.1967 19.4937 50.97C20.7537 52.23 22.1537 53.3267 23.6937 54.26C25.9337 55.5667 28.337 56.4533 30.9037 56.92C31.697 57.0133 32.3737 56.78 32.9337 56.22L36.9237 52.3C37.3904 51.8333 37.927 51.6 38.5337 51.6C39.1404 51.6 39.6537 51.8333 40.0737 52.3L45.8137 57.97C46.2337 58.39 46.4437 58.9267 46.4437 59.58C46.4437 60.2333 46.2337 60.77 45.8137 61.19L41.3337 65.6C40.027 66.9067 38.4754 67.77 36.6787 68.19C34.882 68.61 33.1204 68.5167 31.3937 67.91C30.0404 67.4433 28.827 66.9533 27.7537 66.44C27.5204 66.3467 27.2637 66.3467 26.9837 66.44C26.7037 66.5333 26.517 66.7083 26.4237 66.965C26.3304 67.2217 26.3304 67.49 26.4237 67.77C26.517 68.05 26.7037 68.2367 26.9837 68.33C27.9637 68.7967 29.2237 69.31 30.7637 69.87C31.977 70.29 33.237 70.5 34.5437 70.5C35.5237 70.5 36.4104 70.4067 37.2037 70.22C39.4437 69.7067 41.3104 68.6567 42.8037 67.07L47.2837 62.66C48.1237 61.7267 48.5437 60.7 48.5437 59.58C48.5437 58.46 48.1237 57.4333 47.2837 56.5L41.5437 50.83ZM64.5037 5.61C62.217 3.37 59.4987 1.85333 56.3487 1.06C53.1987 0.266663 50.0837 0.313332 47.0037 1.2C46.7237 1.29333 46.5137 1.45667 46.3737 1.69C46.2337 1.92333 46.1987 2.16833 46.2687 2.425C46.3387 2.68166 46.502 2.88 46.7587 3.02C47.0154 3.16 47.2604 3.20667 47.4937 3.16C50.247 2.41333 53.0237 2.39 55.8237 3.09C58.6237 3.79 61.0504 5.12 63.1037 7.08C64.6437 8.57333 65.8337 10.3117 66.6737 12.295C67.5137 14.2783 67.9454 16.3667 67.9687 18.56C67.992 20.7533 67.5954 22.83 66.7787 24.79C65.962 26.75 64.7837 28.5 63.2437 30.04C61.6104 31.72 59.7087 32.9567 57.5387 33.75C55.3687 34.5433 53.117 34.87 50.7837 34.73C48.4504 34.59 46.257 33.9833 44.2037 32.91C43.737 32.5833 43.247 32.5367 42.7337 32.77L35.2437 35.29L37.7637 27.73C37.997 27.31 37.9504 26.82 37.6237 26.26C36.5037 24.2067 35.8737 22.0133 35.7337 19.68C35.5937 17.3467 35.9437 15.0833 36.7837 12.89C37.6237 10.6967 38.8837 8.78333 40.5637 7.15C41.4504 6.26334 42.407 5.51666 43.4337 4.91C43.667 4.77 43.8187 4.56 43.8887 4.28C43.9587 4 43.912 3.74333 43.7487 3.51C43.5854 3.27666 43.3637 3.125 43.0837 3.055C42.8037 2.985 42.547 3.02 42.3137 3.16C41.0537 3.95333 39.9804 4.79333 39.0937 5.68C37.647 7.08 36.4804 8.66667 35.5937 10.44C34.707 12.2133 34.1354 14.08 33.8787 16.04C33.622 18 33.657 19.925 33.9837 21.815C34.3104 23.705 34.917 25.49 35.8037 27.17L33.2137 35.01C33.0737 35.3367 33.0504 35.675 33.1437 36.025C33.237 36.375 33.4004 36.6667 33.6337 36.9C34.007 37.2733 34.4504 37.46 34.9637 37.46C35.057 37.46 35.2437 37.4133 35.5237 37.32L43.2937 34.73C44.9737 35.6167 46.7587 36.2233 48.6487 36.55C50.5387 36.8767 52.4404 36.9233 54.3537 36.69C58.4604 36.13 61.9137 34.4033 64.7137 31.51C66.4404 29.7833 67.7587 27.8117 68.6687 25.595C69.5787 23.3783 70.022 21.0333 69.9987 18.56C69.9754 16.0867 69.4854 13.7417 68.5287 11.525C67.572 9.30833 66.2304 7.33667 64.5037 5.61ZM53.2337 8.62H50.5037C49.9437 8.62 49.477 8.80667 49.1037 9.18C48.7304 9.55333 48.5437 10.02 48.5437 10.58V15.34H43.7837C43.2237 15.34 42.757 15.5267 42.3837 15.9C42.0104 16.2733 41.8237 16.74 41.8237 17.3V20.03C41.8237 20.59 42.0104 21.0567 42.3837 21.43C42.757 21.8033 43.2237 21.99 43.7837 21.99H48.5437V26.75C48.5437 27.2633 48.7304 27.7183 49.1037 28.115C49.477 28.5117 49.9437 28.71 50.5037 28.71H53.2337C53.7937 28.71 54.2604 28.5117 54.6337 28.115C55.007 27.7183 55.1937 27.2633 55.1937 26.75V21.99H59.9537C60.467 21.99 60.922 21.8033 61.3187 21.43C61.7154 21.0567 61.9137 20.59 61.9137 20.03V17.3C61.9137 16.74 61.7154 16.2733 61.3187 15.9C60.922 15.5267 60.467 15.34 59.9537 15.34H55.1937V10.58C55.1937 10.0667 55.007 9.61167 54.6337 9.215C54.2604 8.81833 53.7937 8.62 53.2337 8.62ZM59.8837 17.37V19.96H54.6337C54.2137 19.96 53.8637 20.1 53.5837 20.38C53.3037 20.66 53.1637 21.01 53.1637 21.43V26.68H50.5737V21.43C50.5737 21.01 50.422 20.66 50.1187 20.38C49.8154 20.1 49.477 19.96 49.1037 19.96H43.8537V17.37H49.1037C49.477 17.37 49.8154 17.23 50.1187 16.95C50.422 16.67 50.5737 16.32 50.5737 15.9V10.65H53.1637V15.9C53.1637 16.32 53.3037 16.67 53.5837 16.95C53.8637 17.23 54.2137 17.37 54.6337 17.37H59.8837Z" fill="black"/>
</svg>
